<?xml version="1.0" encoding="iso-8859-1"?>
<!-- Generator: Adobe Illustrator 15.0.2, SVG Export Plug-In . SVG Version: 6.00 Build 0)  -->
<!DOCTYPE svg PUBLIC "-//W3C//DTD SVG 1.1//EN" "http://www.w3.org/Graphics/SVG/1.1/DTD/svg11.dtd">
<svg version="1.1" id="Layer_1" xmlns="http://www.w3.org/2000/svg" xmlns:xlink="http://www.w3.org/1999/xlink" x="0px" y="0px"
	 width="96.007px" height="71.534px" viewBox="0 0 96.007 71.534" style="enable-background:new 0 0 96.007 71.534;"
	 xml:space="preserve">
<g id="ico_x5F_mail_x5F_lg">
	<path d="M25.978,43.522c0-0.563-0.234-1.07-0.609-1.434l0.003-0.022L3.522,21.941c-0.367-0.426-0.903-0.701-1.51-0.701
		c-1.105,0-2,0.896-2,2c0,0.042,0.01,0.082,0.013,0.123L0,23.374v13.304v17.741l0.018,0.011c-0.001,0.016-0.005,0.029-0.005,0.045
		c0,1.104,0.895,2,2,2c0.348,0,0.67-0.097,0.955-0.253l0.002,0.002l21.727-10.84C25.445,45.095,25.978,44.373,25.978,43.522z"/>
	<path d="M2.016,12.271c0.002,0.008,0.005,0.019,0.005,0.019l44.271,40.783c0.91,0.836,2.506,0.837,3.418-0.001l44.388-40.889
		l0.003-0.013c0.403-0.366,0.662-0.89,0.662-1.478c0-0.507-0.194-0.964-0.505-1.316c-0.008-0.011-0.01-0.03-0.018-0.039
		c-0.902-1.006-1.936-1.656-2.529-2.021C90.176,6.344,79.001,0,48.002,0C16.998,0,5.825,6.344,4.289,7.317
		C3.712,7.672,2.72,8.303,1.834,9.265c-0.011,0.011-0.021,0.021-0.03,0.03C1.792,9.308,1.78,9.317,1.769,9.33
		C1.762,9.338,1.757,9.351,1.751,9.359c-0.32,0.354-0.52,0.819-0.52,1.334C1.231,11.338,1.542,11.905,2.016,12.271z"/>
	<path d="M94.007,21.261c-0.493,0-0.938,0.186-1.287,0.48l-0.018-0.008L68.53,44l24.328,12.138c0.323,0.225,0.715,0.358,1.139,0.358
		c1.105,0,2-0.896,2-2c0-0.018-0.005-0.034-0.006-0.053L96,54.438V36.678v-13.35c0.001-0.022,0.007-0.044,0.007-0.067
		C96.007,22.156,95.112,21.261,94.007,21.261z"/>
	<path d="M90.124,61.577l-0.003-0.013L65.114,49.088l-0.007,0.001c-0.296-0.175-0.638-0.281-1.007-0.281
		c-0.53,0-1.01,0.21-1.367,0.547l-0.02,0.002l-8.877,8.179c-1.609,1.481-3.724,2.223-5.837,2.223c-2.114,0-4.229-0.741-5.837-2.222
		l-8.779-8.087l-0.011-0.002c-0.364-0.392-0.881-0.64-1.459-0.64c-0.339,0-0.652,0.092-0.932,0.24l-0.012-0.002L6.018,61.493
		l-0.001,0.004c-0.707,0.309-1.201,1.012-1.201,1.832c0,0.859,0.545,1.586,1.306,1.869c4.376,2.074,16.46,6.336,41.881,6.336
		c25.54,0,37.617-4.303,41.94-6.365c0.006-0.003,0.013-0.007,0.02-0.01c0.048-0.022,0.101-0.047,0.146-0.069
		c0.016-0.008,0.027-0.023,0.043-0.033c0.605-0.344,1.018-0.986,1.018-1.732C91.169,62.567,90.744,61.917,90.124,61.577z"/>
</g>
</svg>
