<?xml version="1.0" encoding="iso-8859-1"?>
<!-- Generator: Adobe Illustrator 15.0.2, SVG Export Plug-In . SVG Version: 6.00 Build 0)  -->
<!DOCTYPE svg PUBLIC "-//W3C//DTD SVG 1.1//EN" "http://www.w3.org/Graphics/SVG/1.1/DTD/svg11.dtd">
<svg version="1.1" id="Layer_1" xmlns="http://www.w3.org/2000/svg" xmlns:xlink="http://www.w3.org/1999/xlink" x="0px" y="0px"
	 width="95.904px" height="63.561px" viewBox="0 0 95.904 63.561" style="enable-background:new 0 0 95.904 63.561;"
	 xml:space="preserve">
<g id="ico_x5F_moneydollar_x5F_lg">
	<path d="M93.83,13.954H16.031c-1.142,0-2.074,0.934-2.074,2.074v45.458c0,1.141,0.933,2.074,2.074,2.074H93.83
		c1.142,0,2.074-0.934,2.074-2.074V16.028C95.904,14.888,94.972,13.954,93.83,13.954z M54.932,59.737
		c-11.566,0-20.943-9.377-20.943-20.941s9.377-20.941,20.943-20.941s20.941,9.377,20.941,20.941S66.498,59.737,54.932,59.737z"/>
	<path d="M57.102,35.947v-7.275c0.909,0.083,1.859,0.621,2.727,1.447c0.58,0.537,0.952,0.991,1.778,0.991
		c1.116,0,2.521-1.446,2.521-2.604c0-0.703-0.538-1.446-1.281-2.107c-1.24-1.074-3.472-2.108-5.745-2.357V23.01
		c0-1.571-0.455-2.108-1.818-2.108c-1.406,0-1.943,0.537-1.943,2.108c0,0.702,0,0.784,0,1.116c-4.547,0.537-7.607,3.678-7.607,7.854
		c0,5.002,3.639,7.068,7.607,8.143v7.979c-1.488-0.166-2.77-1.075-3.473-1.654c-0.537-0.455-0.992-0.785-1.695-0.785
		c-1.322,0-2.355,1.447-2.355,2.439c0,0.537,0.123,1.033,0.703,1.611c1.613,1.612,4.092,2.521,6.82,2.853v1.239
		c0,1.695,0.289,2.191,1.859,2.191c1.695,0,1.902-0.62,1.902-2.191v-1.239c4.919-0.331,7.854-3.721,7.854-8.061
		C64.955,39.751,61.275,37.271,57.102,35.947z M53.34,34.831c-1.612-0.496-2.398-1.405-2.398-3.101c0-2.106,1.322-2.893,2.398-3.059
		V34.831z M57.102,48.101v-6.903c2.025,0.661,2.77,2.108,2.77,3.554C59.871,46.694,58.549,47.894,57.102,48.101z"/>
	<path d="M16.031,7.731h65.918V2.074C81.949,0.934,81.016,0,79.875,0H2.074C0.934,0,0,0.934,0,2.074V47.53
		c0,1.142,0.934,2.075,2.074,2.075h5.658V16.028c0-0.312,0.021-0.62,0.055-0.924v-4.627c0-0.066,0.012-0.119,0.014-0.183H7.787
		c0-1.947,0.925-2.516,2.854-2.553c0.037-0.001,0.066-0.007,0.105-0.007h5.208C15.98,7.734,16.006,7.731,16.031,7.731z"/>
</g>
</svg>
